<svg width="26" height="69" viewBox="0 0 26 69" fill="none" xmlns="http://www.w3.org/2000/svg">
<path d="M4.11528 68.416C3.82728 68.416 3.52128 68.398 3.19728 68.362C2.90928 68.326 2.62128 68.236 2.33328 68.092C1.14528 67.588 0.551279 66.814 0.551279 65.77V65.446C0.623279 64.87 0.85728 64.384 1.25328 63.988C1.68528 63.628 2.24328 63.412 2.92728 63.34C3.43128 63.268 3.93528 63.232 4.43928 63.232C4.94328 63.232 5.44728 63.232 5.95128 63.232C6.70728 63.196 7.10328 62.8 7.13928 62.044C7.21128 59.992 7.35528 57.796 7.57128 55.456C7.82328 53.152 7.94928 50.776 7.94928 48.328V45.736C7.94928 43.252 8.00328 40.768 8.11128 38.284C8.25528 35.764 8.32728 33.262 8.32728 30.778L8.27328 28.51C8.20128 26.242 8.12928 23.974 8.05728 21.706C7.98528 19.438 7.80528 17.08 7.51728 14.632C7.12128 14.92 6.77928 15.172 6.49128 15.388C6.23928 15.604 5.96928 15.802 5.68128 15.982C5.10528 16.342 4.52928 16.522 3.95328 16.522C3.12528 16.522 2.47728 16.198 2.00928 15.55C1.64928 15.082 1.46928 14.56 1.46928 13.984C1.46928 13.552 1.55928 13.138 1.73928 12.742C1.95528 12.346 2.26128 12.022 2.65728 11.77C3.77328 11.086 4.74528 10.294 5.57328 9.394C6.43728 8.458 7.31928 7.54 8.21928 6.64C9.40728 5.416 10.7033 4.354 12.1073 3.454C13.5113 2.518 14.9333 1.6 16.3733 0.699997C16.9133 0.375997 17.5073 0.213997 18.1553 0.213997C19.0913 0.213997 19.9373 0.537997 20.6933 1.186C21.4493 1.834 21.8273 2.68 21.8273 3.724C21.8273 4.228 21.8453 4.714 21.8813 5.182C21.9173 5.65 21.9353 6.136 21.9353 6.64L21.8813 7.612C21.7733 9.016 21.7193 10.42 21.7193 11.824C21.7193 13.732 21.7733 15.622 21.8813 17.494C22.0253 19.366 22.1333 21.256 22.2053 23.164C22.2773 24.64 22.3313 26.116 22.3673 27.592C22.4033 29.032 22.4213 30.49 22.4213 31.966C22.4213 35.134 22.3133 38.302 22.0973 41.47C22.0613 41.974 22.0253 42.478 21.9893 42.982C21.9893 43.486 21.9893 43.99 21.9893 44.494L22.0433 48.058C22.0433 50.218 21.9713 52.36 21.8273 54.484C21.6833 56.608 21.5033 58.75 21.2873 60.91L21.1793 62.422C21.1793 62.998 21.4493 63.286 21.9893 63.286H23.0153C23.4113 63.286 23.6993 63.304 23.8793 63.34C24.4913 63.484 24.9593 63.754 25.2833 64.15C25.6433 64.582 25.8233 65.068 25.8233 65.608V65.77C25.8233 66.814 25.3013 67.534 24.2573 67.93C23.9693 68.038 23.6813 68.11 23.3933 68.146C23.1413 68.218 22.8713 68.272 22.5833 68.308C21.3233 68.38 19.6673 68.416 17.6153 68.416C15.5633 68.416 13.5293 68.416 11.5133 68.416H4.11528Z" fill="#FDA3C4"/>
</svg>
