<svg width="33" height="69" viewBox="0 0 33 69" fill="none" xmlns="http://www.w3.org/2000/svg">
<path d="M11.2569 68.632C9.20493 68.632 7.15293 68.524 5.10093 68.308C4.05693 68.2 3.26493 67.876 2.72493 67.336C2.18493 66.832 1.91493 66.22 1.91493 65.5C1.91493 64.816 2.18493 64.06 2.72493 63.232C3.98493 61.612 5.04693 59.812 5.91093 57.832C6.77493 55.852 7.54893 53.782 8.23293 51.622L13.7949 34.072C14.5509 31.696 15.1989 29.302 15.7389 26.89C16.2789 24.478 16.7469 22.03 17.1429 19.546C17.2509 18.79 17.3049 18.052 17.3049 17.332C17.3049 15.208 16.8729 13.246 16.0089 11.446C15.1449 9.646 14.1009 7.882 12.8769 6.154C12.4809 5.614 11.9589 5.344 11.3109 5.344C10.6989 5.344 10.1409 5.578 9.63693 6.046C9.02493 6.622 8.50293 7.252 8.07093 7.936C7.67493 8.62 7.33293 9.376 7.04493 10.204C6.61293 11.356 6.30693 12.544 6.12693 13.768C5.98293 14.956 5.91093 16.162 5.91093 17.386V24.298C5.83893 25.306 5.58693 26.08 5.15493 26.62C4.75893 27.16 4.20093 27.43 3.48093 27.43H3.37293C2.68893 27.394 2.11293 27.142 1.64493 26.674C1.21293 26.17 0.996926 25.468 0.996926 24.568V24.406C0.996926 23.398 0.978926 22.408 0.942926 21.436C0.906926 20.428 0.888926 19.42 0.888926 18.412C0.888926 16.936 0.960926 15.496 1.10493 14.092C1.24893 12.652 1.51893 11.23 1.91493 9.826C2.31093 8.458 2.83293 7.162 3.48093 5.938C4.12893 4.714 4.97493 3.598 6.01893 2.59C7.56693 1.042 9.36693 0.267997 11.4189 0.267997H12.5529C13.2729 0.267997 13.9929 0.267997 14.7129 0.267997C15.4689 0.231997 16.2069 0.213997 16.9269 0.213997C18.1869 0.213997 19.4469 0.267998 20.7069 0.375998C23.2989 0.591998 25.2609 1.762 26.5929 3.886C27.7809 5.758 28.8609 7.666 29.8329 9.61C30.8049 11.518 31.3809 13.624 31.5609 15.928L31.6149 17.17C31.6149 18.538 31.5069 19.888 31.2909 21.22C31.0749 22.516 30.8409 23.83 30.5889 25.162C30.0489 28.114 29.3289 31.012 28.4289 33.856C27.5649 36.664 26.7009 39.508 25.8369 42.388C25.4769 43.468 25.1169 44.584 24.7569 45.736C24.3969 46.888 24.0369 48.022 23.6769 49.138C23.3169 50.254 22.9569 51.334 22.5969 52.378C22.2729 53.422 21.9849 54.376 21.7329 55.24C21.4809 55.96 21.2109 56.662 20.9229 57.346C20.6349 58.066 20.3289 58.768 20.0049 59.452L18.3309 63.394C18.6189 63.466 18.8709 63.502 19.0869 63.502C19.3389 63.538 19.5909 63.556 19.8429 63.556C20.4909 63.556 21.0849 63.502 21.6249 63.394C22.1289 63.322 22.6149 63.268 23.0829 63.232C23.5869 63.196 24.0909 63.178 24.5949 63.178L28.4289 63.286L30.1029 63.232C30.8229 63.232 31.3989 63.43 31.8309 63.826C32.2989 64.222 32.5869 64.726 32.6949 65.338V65.662C32.6949 66.238 32.4969 66.742 32.1009 67.174C31.7049 67.642 31.1109 67.966 30.3189 68.146C29.7429 68.29 29.0949 68.362 28.3749 68.362L25.1889 68.254C24.0009 68.254 22.8129 68.29 21.6249 68.362C20.4729 68.434 19.3029 68.47 18.1149 68.47C17.9349 68.47 17.5569 68.47 16.9809 68.47C16.4049 68.506 15.7569 68.524 15.0369 68.524C14.3169 68.56 13.5969 68.578 12.8769 68.578C12.1929 68.614 11.6529 68.632 11.2569 68.632Z" fill="#FDA3C4"/>
</svg>
