<svg width="85" height="24" viewBox="0 0 85 24" fill="none" xmlns="http://www.w3.org/2000/svg">
<path d="M0.912979 19.7638C1.49249 14.4672 2.28931 8.74345 5.62146 4.72828C8.44654 1.31112 12.7204 -0.482914 16.6321 1.39653C21.0508 3.53225 22.8617 8.82888 25.1797 13.2712C26.5561 15.9195 29.1638 19.6784 32.2787 18.9095C34.3794 18.3115 35.2486 15.7486 35.9006 13.6129C37.0596 10.1103 37.784 6.18056 40.2469 3.53225C42.9995 0.627665 46.9112 0.969402 49.8087 3.44685C53.7204 6.69315 54.8069 12.246 58.0666 16.1758C60.3846 18.9095 63.2097 18.6532 65.4553 15.8341C67.2663 13.4421 67.7734 10.2812 69.1497 7.54743C71.3953 3.10512 75.8864 2.07996 79.6532 4.81369C84.0719 8.14543 84.579 14.8089 83.6373 20.2763C83.2751 22.4975 80.1603 21.9849 80.2327 19.7638C80.2327 17.2009 80.45 14.4672 79.7256 11.9898C78.7839 8.82888 75.4518 6.26597 73.1338 9.17056C71.8299 10.7937 71.4677 13.3566 70.5985 15.3215C69.7292 17.3718 68.4253 19.2512 66.9041 20.7035C60.3122 26.5981 54.7345 19.3366 51.5472 12.9295C49.8087 9.42686 45.3175 2.67794 42.2027 8.31627C40.5366 11.2209 40.1744 14.9798 38.7981 18.0552C35.3935 25.8293 28.0772 24.7187 23.6585 18.6532C20.8334 14.8089 19.4571 7.46199 14.966 5.66798C8.01189 3.01968 5.69389 14.2963 5.11439 19.7638C4.60732 22.6684 0.62323 22.7538 0.912979 19.7638Z" fill="#FDA3C4"/>
</svg>
