<svg width="199" height="50" viewBox="0 0 199 50" fill="none" xmlns="http://www.w3.org/2000/svg">
<path d="M5.62996 35.1044L2.01919 30.2118L0.028912 10.6414C1.77396 7.85536 7.86488 2.12014 18.2681 1.4678C31.2722 0.652364 37.2876 -0.172465 52.2316 0.0313937C67.1755 0.235252 140.376 0.44087 145.634 0.44087C150.892 0.44087 176.937 -0.170538 183.863 2.88717C189.404 5.33334 194.491 10.0222 196.341 12.0608C195.789 12.4685 195.017 13.7323 196.35 15.5263C197.684 17.3202 198.392 20.0791 198.58 21.2343C197.844 21.9138 196.372 23.436 196.374 24.0883C196.376 24.9037 191.395 25.1076 193.889 26.1269C195.883 26.9423 196.388 29.3207 196.391 30.4079C194.456 31.4272 189.702 33.5066 186.161 33.6696C182.619 33.8327 179.522 34.553 178.416 34.8928L178.42 36.5238C180.081 36.7956 183.072 37.4206 181.744 37.7468C180.085 38.1545 178.422 37.1352 177.04 37.7468C175.658 38.3584 173.724 39.5815 175.385 39.9893C175.896 40.3649 176.396 40.5523 176.844 40.6252C177.393 40.5276 177.986 40.4473 178.431 40.397C178.147 40.5644 177.562 40.7422 176.844 40.6252C175.912 40.7911 175.11 41.0071 175.389 41.2124C175.832 41.5386 177.605 42.0278 178.436 42.2317L179.823 43.4548H175.395C172.96 43.4548 173.461 44.678 174.016 45.2896C173.371 45.4255 171.693 45.6157 170.142 45.2896C168.204 44.8818 169.036 45.4934 165.715 45.6973C163.059 45.8604 148.617 45.7652 144.097 45.6973C144.465 45.4255 144.703 44.8818 142.711 44.8818C140.22 44.8818 139.944 44.8818 136.901 45.2896C133.858 45.6973 55.1207 44.8801 45.7119 44.8801C38.1849 44.8801 47.7504 43.8702 46.3667 43.8702C42.0332 44.5497 27.0227 45.868 20.6022 45.7049C12.5764 45.501 5.65267 43.4625 5.65212 43.2586C5.65168 43.0955 4.17272 41.9675 3.4333 41.4239C4.17217 41.7636 5.64935 42.2393 5.64713 41.4239C5.64492 40.6084 4.16257 38.2301 3.42167 37.1429L5.62996 35.1044Z" fill="#FDA3C4"/>
<path d="M10.9194 46.7242C10.0339 46.7242 9.99918 47.5396 10.0925 47.9473L8.29434 48.1512C7.41988 48.8307 5.83688 50.149 6.50059 49.9859C7.16429 49.8228 8.43603 49.3743 8.98894 49.1705C9.35717 48.8987 11.8647 48.3551 18.949 48.3551C27.8043 48.3551 26.973 47.9473 27.8032 47.9473C28.6334 47.9473 12.0263 46.7242 10.9194 46.7242Z" fill="#FDA3C4"/>
</svg>
