<svg width="339" height="70" viewBox="0 0 339 70" fill="none" xmlns="http://www.w3.org/2000/svg">
<path d="M18.492 64.07C19.212 64.07 19.914 63.944 20.598 63.692C21.282 63.44 21.966 63.152 22.65 62.828C23.55 62.396 24.36 61.892 25.08 61.316C25.8 60.776 26.43 60.056 26.97 59.156C27.51 58.292 27.924 57.212 28.212 55.916C28.536 54.62 28.734 53.018 28.806 51.11L28.752 50.192C28.716 49.94 28.698 49.706 28.698 49.49C28.698 49.238 28.698 48.968 28.698 48.68C28.698 48.428 28.698 48.194 28.698 47.978C28.698 47.726 28.68 47.474 28.644 47.222C28.536 44.846 27.618 43.658 25.89 43.658C25.458 43.658 24.918 43.748 24.27 43.928C23.01 44.324 21.732 44.666 20.436 44.954C19.14 45.206 17.844 45.422 16.548 45.602C16.008 45.674 15.648 45.836 15.468 46.088C15.324 46.304 15.252 46.646 15.252 47.114L14.982 56.024H15.036C15.036 56.96 15.036 57.896 15.036 58.832C15.036 59.768 15.054 60.704 15.09 61.64C15.126 62.432 15.27 62.954 15.522 63.206C15.774 63.494 16.296 63.728 17.088 63.908C17.556 64.016 18.024 64.07 18.492 64.07ZM15.576 40.04C16.08 39.788 16.566 39.572 17.034 39.392C17.538 39.176 18.042 38.942 18.546 38.69C20.058 37.97 21.3 37.034 22.272 35.882C23.28 34.694 23.982 33.29 24.378 31.67C24.846 29.69 25.206 27.728 25.458 25.784C25.746 23.804 25.89 21.806 25.89 19.79C25.89 18.674 25.836 17.558 25.728 16.442C25.62 15.326 25.476 14.192 25.296 13.04C25.152 12.32 24.954 11.636 24.702 10.988C24.45 10.304 24.126 9.656 23.73 9.044C23.118 8.216 22.398 7.604 21.57 7.208C20.778 6.776 19.914 6.56 18.978 6.56C18.042 6.56 17.196 6.74 16.44 7.1C16.152 7.244 15.954 7.406 15.846 7.586C15.738 7.73 15.684 7.946 15.684 8.234L15.306 13.418C15.234 14.642 15.18 15.848 15.144 17.036C15.144 18.224 15.144 19.43 15.144 20.654C15.144 23.426 15.18 26.18 15.252 28.916C15.324 31.652 15.36 34.424 15.36 37.232V39.284C15.36 39.356 15.378 39.464 15.414 39.608C15.45 39.716 15.504 39.86 15.576 40.04ZM13.092 69.362C11.976 69.362 10.86 69.326 9.744 69.254C8.664 69.182 7.584 69.02 6.504 68.768C5.676 68.588 4.902 68.336 4.182 68.012C3.498 67.688 2.796 67.364 2.076 67.04C1.356 66.68 0.888 66.176 0.672 65.528C0.492 64.916 0.402 64.25 0.402 63.53C0.366 61.91 0.33 60.29 0.294 58.67C0.258 57.086 0.24 55.484 0.24 53.864L0.672 36.368C0.672 34.316 0.654 32.264 0.618 30.212C0.582 28.124 0.528 26.054 0.456 24.002L0.402 20.816C0.402 18.296 0.474 15.776 0.618 13.256C0.762 10.736 0.888 8.216 0.996 5.696C1.032 4.76 1.248 4.058 1.644 3.59C2.076 3.086 2.814 2.69 3.858 2.402C5.082 2.078 6.306 1.79 7.53 1.538C8.754 1.286 9.996 1.124 11.256 1.052L13.47 0.997997C15.594 0.997997 17.718 1.16 19.842 1.484C22.578 1.88 24.81 2.924 26.538 4.616C28.266 6.308 29.436 8.522 30.048 11.258C30.336 12.59 30.534 13.922 30.642 15.254C30.786 16.55 30.858 17.864 30.858 19.196C30.858 20.564 30.786 21.95 30.642 23.354C30.534 24.758 30.39 26.162 30.21 27.566C30.03 28.79 29.832 30.014 29.616 31.238C29.4 32.426 29.094 33.596 28.698 34.748C28.41 35.396 28.086 36.026 27.726 36.638C27.366 37.25 26.988 37.88 26.592 38.528C27.024 38.672 27.42 38.78 27.78 38.852C28.14 38.924 28.482 39.032 28.806 39.176C30.102 39.788 31.146 40.598 31.938 41.606C32.766 42.578 33.27 43.784 33.45 45.224C33.666 46.736 33.774 48.266 33.774 49.814C33.774 50.138 33.756 50.642 33.72 51.326C33.684 52.01 33.63 52.73 33.558 53.486C33.522 54.242 33.468 54.944 33.396 55.592C33.324 56.276 33.27 56.78 33.234 57.104C33.054 58.472 32.676 59.714 32.1 60.83C31.56 61.946 30.804 62.972 29.832 63.908C28.104 65.456 26.268 66.716 24.324 67.688C22.38 68.66 20.238 69.182 17.898 69.254C17.07 69.29 16.26 69.308 15.468 69.308C14.712 69.344 13.92 69.362 13.092 69.362ZM71.0994 69.308C69.7314 69.308 68.8854 68.588 68.5614 67.148C68.4534 66.788 68.3994 66.428 68.3994 66.068L67.2654 42.794C67.2654 40.67 67.2834 38.618 67.3194 36.638C67.3194 35.81 67.3194 34.964 67.3194 34.1C67.3554 33.236 67.3734 32.408 67.3734 31.616C67.4094 30.788 67.4274 30.032 67.4274 29.348C67.4274 28.664 67.4274 28.07 67.4274 27.566V26.162C67.3554 22.454 67.3194 18.764 67.3194 15.092C67.3194 11.42 67.3194 7.838 67.3194 4.346C67.3194 3.374 67.4994 2.654 67.8594 2.186C68.2554 1.682 68.9214 1.376 69.8574 1.268C70.6494 1.196 71.4234 1.142 72.1794 1.106C72.9354 1.07 73.7094 1.052 74.5014 1.052C75.3294 1.052 76.1754 1.07 77.0394 1.106C77.9034 1.142 78.7494 1.196 79.5774 1.268C80.5134 1.34 81.1974 1.628 81.6294 2.132C82.0614 2.6 82.3314 3.302 82.4394 4.238C82.4754 4.526 82.4934 4.85 82.4934 5.21C82.4934 5.534 82.4934 5.84 82.4934 6.128C82.4934 10.34 82.4934 14.624 82.4934 18.98C82.4934 23.3 82.5114 27.656 82.5474 32.048V33.398C82.8714 33.11 83.0694 32.84 83.1414 32.588C83.2494 32.336 83.3394 32.084 83.4114 31.832C84.8874 27.476 86.4714 22.958 88.1634 18.278C89.8554 13.562 91.6554 8.828 93.5634 4.076C93.7074 3.788 93.8334 3.5 93.9414 3.212C94.0494 2.888 94.1934 2.582 94.3734 2.294C94.8774 1.574 95.5794 1.214 96.4794 1.214C96.5874 1.214 96.6954 1.214 96.8034 1.214C96.9474 1.214 97.0914 1.25 97.2354 1.322C98.2794 1.718 98.8014 2.51 98.8014 3.698C98.8014 4.094 98.7474 4.454 98.6394 4.778C98.5314 5.102 98.4054 5.444 98.2614 5.804C96.2454 10.844 94.3374 15.848 92.5374 20.816C90.7734 25.748 89.1174 30.536 87.5694 35.18C87.1734 36.332 86.7594 37.466 86.3274 38.582C85.9314 39.662 85.4994 40.742 85.0314 41.822C84.8514 42.29 84.7614 42.668 84.7614 42.956C84.7614 43.316 84.9054 43.748 85.1934 44.252C87.2094 47.852 89.1174 51.128 90.9174 54.08C92.7534 57.068 94.6974 59.876 96.7494 62.504C97.2174 63.116 97.7934 63.656 98.4774 64.124C98.6574 64.232 98.8194 64.34 98.9634 64.448C99.1434 64.592 99.3234 64.736 99.5034 64.88C100.115 65.42 100.421 66.068 100.421 66.824C100.421 67.328 100.277 67.778 99.9894 68.174C99.5214 68.894 98.8554 69.254 97.9914 69.254C97.7034 69.254 97.3434 69.164 96.9114 68.984C96.0474 68.588 95.2734 68.084 94.5894 67.472C93.9054 66.86 93.2574 66.176 92.6454 65.42C91.2774 63.584 89.9274 61.676 88.5954 59.696C87.2634 57.716 85.9134 55.376 84.5454 52.676C84.3654 52.316 84.1494 51.974 83.8974 51.65C83.6454 51.29 83.3394 50.858 82.9794 50.354C82.9434 50.858 82.9254 51.326 82.9254 51.758C82.9254 52.19 82.9254 52.622 82.9254 53.054C82.9254 53.99 82.9434 54.872 82.9794 55.7C83.0514 56.564 83.1234 57.41 83.1954 58.238C83.3034 59.462 83.3934 60.686 83.4654 61.91C83.5374 63.134 83.5734 64.358 83.5734 65.582V66.446C83.5014 67.418 83.2494 68.12 82.8174 68.552C82.4214 69.02 81.7554 69.272 80.8194 69.308C80.1354 69.344 79.4514 69.362 78.7674 69.362C78.0834 69.362 77.3994 69.362 76.7154 69.362L71.0994 69.308ZM127.55 64.07C128.342 64.07 129.044 63.53 129.656 62.45C129.908 61.982 130.106 61.514 130.25 61.046C130.43 60.614 130.61 60.146 130.79 59.642C132.086 55.61 133.04 51.542 133.652 47.438C134.3 43.334 134.696 39.14 134.84 34.856V34.478C134.84 29.978 134.426 25.658 133.598 21.518C132.806 17.342 131.726 13.184 130.358 9.044C130.286 8.864 130.214 8.702 130.142 8.558C130.07 8.414 129.998 8.252 129.926 8.072C129.314 7.1 128.504 6.614 127.496 6.614C127.1 6.614 126.686 6.722 126.254 6.938C125.858 7.118 125.516 7.406 125.228 7.802C124.616 8.63 124.148 9.494 123.824 10.394C123.5 11.294 123.212 12.212 122.96 13.148C122.204 16.208 121.682 19.286 121.394 22.382C121.106 25.442 120.872 28.556 120.692 31.724C120.62 32.444 120.584 33.164 120.584 33.884C120.584 34.604 120.584 35.324 120.584 36.044C120.584 40.184 120.872 44.162 121.448 47.978C122.024 51.794 122.852 55.592 123.932 59.372C124.112 59.984 124.31 60.56 124.526 61.1C124.742 61.676 125.048 62.216 125.444 62.72C126.128 63.62 126.83 64.07 127.55 64.07ZM117.992 69.308C117.164 69.308 116.426 69.11 115.778 68.714C115.166 68.354 114.572 67.904 113.996 67.364C113.06 66.464 112.322 65.474 111.782 64.394C111.278 63.314 110.846 62.18 110.486 60.992C109.298 56.888 108.398 52.784 107.786 48.68C107.21 44.54 106.922 40.256 106.922 35.828C106.922 34.1 106.976 32.336 107.084 30.536C107.264 27.332 107.534 24.182 107.894 21.086C108.254 17.954 108.812 14.84 109.568 11.744C110.396 8.54 111.836 5.75 113.888 3.374C114.32 2.834 114.788 2.402 115.292 2.078C115.796 1.754 116.408 1.556 117.128 1.484C118.1 1.412 119.072 1.34 120.044 1.268C121.016 1.196 122.006 1.16 123.014 1.16C124.166 1.16 125.3 1.232 126.416 1.376C127.532 1.484 128.648 1.7 129.764 2.024C131.168 2.42 132.302 3.086 133.166 4.022C134.03 4.958 134.678 6.11 135.11 7.478C136.118 10.646 137 13.832 137.756 17.036C138.548 20.204 139.106 23.462 139.43 26.81C139.538 27.89 139.628 28.97 139.7 30.05C139.808 31.094 139.862 32.138 139.862 33.182V34.37C139.682 39.086 139.25 43.676 138.566 48.14C137.918 52.568 136.892 56.942 135.488 61.262C135.308 61.874 135.11 62.45 134.894 62.99C134.678 63.566 134.426 64.124 134.138 64.664C132.95 67.184 130.934 68.642 128.09 69.038C127.19 69.182 126.29 69.272 125.39 69.308C124.526 69.344 123.644 69.362 122.744 69.362L117.992 69.308ZM163.539 40.04C163.755 40.04 163.989 40.022 164.241 39.986C164.529 39.95 164.853 39.896 165.213 39.824C165.321 39.824 165.429 39.806 165.537 39.77C165.645 39.734 165.735 39.698 165.807 39.662C167.751 39.194 169.191 38.33 170.127 37.07C171.099 35.81 171.711 34.262 171.963 32.426C172.143 31.382 172.269 30.392 172.341 29.456C172.449 28.484 172.539 27.746 172.611 27.242C172.647 27.062 172.665 26.882 172.665 26.702C172.665 26.522 172.665 26.342 172.665 26.162C172.665 25.802 172.647 25.478 172.611 25.19C172.611 24.866 172.611 24.578 172.611 24.326C172.431 20.258 171.711 16.316 170.451 12.5C169.947 10.988 169.191 9.782 168.183 8.882C167.175 7.946 165.969 7.208 164.565 6.668C164.277 6.596 163.989 6.542 163.701 6.506C163.413 6.434 163.125 6.362 162.837 6.29L162.405 6.236C161.793 6.236 161.487 6.578 161.487 7.262L161.541 9.584C161.613 12.068 161.667 14.498 161.703 16.874C161.775 19.214 161.847 21.32 161.919 23.192C161.919 24.92 161.919 27.026 161.919 29.51C161.919 31.958 161.937 34.496 161.973 37.124C161.973 38.24 162.063 39.014 162.243 39.446C162.423 39.842 162.855 40.04 163.539 40.04ZM151.281 69.416C151.101 69.416 150.903 69.398 150.687 69.362C150.507 69.362 150.327 69.344 150.147 69.308C148.167 68.984 147.159 67.814 147.123 65.798C147.015 63.494 146.943 61.1 146.907 58.616C146.871 56.168 146.835 53.702 146.799 51.218C146.799 48.734 146.799 46.268 146.799 43.82C146.799 41.336 146.799 38.96 146.799 36.692V28.97C146.799 27.134 146.781 25.334 146.745 23.57C146.745 21.77 146.709 19.97 146.637 18.17C146.565 16.19 146.511 14.21 146.475 12.23C146.475 10.25 146.439 8.27 146.367 6.29V5.426C146.403 3.914 146.691 2.87 147.231 2.294C147.807 1.682 148.851 1.322 150.363 1.214L152.415 1.16L156.411 1.214H160.731L162.891 1.322C165.951 1.682 168.525 2.654 170.613 4.238C172.737 5.822 174.285 8.126 175.257 11.15C176.661 15.506 177.471 19.934 177.687 24.434V24.92C177.687 25.208 177.687 25.64 177.687 26.216C177.687 26.756 177.651 27.494 177.579 28.43C177.507 29.15 177.399 30.014 177.255 31.022C177.111 32.03 176.949 33.056 176.769 34.1C176.517 35.432 176.067 36.746 175.419 38.042C174.807 39.302 173.961 40.436 172.881 41.444C171.837 42.452 170.559 43.28 169.047 43.928C167.535 44.54 165.789 44.864 163.809 44.9C163.089 44.9 162.639 44.954 162.459 45.062C162.279 45.17 162.189 45.494 162.189 46.034V50.3C162.189 51.56 162.171 52.838 162.135 54.134C162.135 55.43 162.135 56.726 162.135 58.022C162.135 58.598 162.135 59.174 162.135 59.75C162.135 60.326 162.153 60.902 162.189 61.478L162.405 66.338C162.405 67.742 161.685 68.624 160.245 68.984C159.957 69.056 159.669 69.092 159.381 69.092C159.129 69.128 158.859 69.164 158.571 69.2C157.419 69.272 156.267 69.308 155.115 69.308C153.963 69.344 152.811 69.38 151.659 69.416H151.281ZM198.542 69.416C197.858 69.416 197.174 69.416 196.49 69.416C195.842 69.416 195.158 69.38 194.438 69.308C193.574 69.236 192.782 68.948 192.062 68.444C191.342 67.976 190.676 67.436 190.064 66.824C188.48 65.06 187.256 63.17 186.392 61.154C185.528 59.138 184.916 56.996 184.556 54.728C184.484 54.08 184.412 53.432 184.34 52.784C184.304 52.136 184.286 51.488 184.286 50.84C184.286 49.58 184.34 48.338 184.448 47.114C184.592 45.854 184.754 44.594 184.934 43.334C185.222 41.786 186.014 41.012 187.31 41.012H187.526C188.21 41.048 188.768 41.3 189.2 41.768C189.632 42.236 189.848 42.848 189.848 43.604V44.036C189.848 44.54 189.812 45.044 189.74 45.548C189.704 46.052 189.65 46.556 189.578 47.06C189.506 47.672 189.434 48.266 189.362 48.842C189.326 49.418 189.308 50.012 189.308 50.624C189.308 54.188 190.172 57.59 191.9 60.83C192.512 61.982 193.358 62.864 194.438 63.476C195.518 64.088 196.634 64.394 197.786 64.394C198.506 64.394 199.208 64.286 199.892 64.07C200.576 63.854 201.224 63.494 201.836 62.99C202.232 62.666 202.556 62.27 202.808 61.802C203.06 61.37 203.276 60.92 203.456 60.452C203.78 59.516 204.014 58.598 204.158 57.698C204.302 56.798 204.374 55.88 204.374 54.944C204.374 53.792 204.266 52.658 204.05 51.542C203.87 50.426 203.618 49.292 203.294 48.14C203.222 47.888 203.114 47.672 202.97 47.492C202.826 47.276 202.682 47.06 202.538 46.844C202.142 46.196 201.692 45.872 201.188 45.872C200.9 45.872 200.576 45.98 200.216 46.196C200.072 46.304 199.91 46.394 199.73 46.466C199.586 46.502 199.424 46.556 199.244 46.628C198.884 46.7 198.614 46.736 198.434 46.736C197.498 46.736 196.814 46.376 196.382 45.656C196.094 45.188 195.95 44.72 195.95 44.252C195.95 43.64 196.184 43.046 196.652 42.47C196.904 42.218 197.192 41.984 197.516 41.768C198.668 40.976 199.604 40.04 200.324 38.96C201.044 37.88 201.62 36.692 202.052 35.396C202.376 34.46 202.646 33.236 202.862 31.724C203.114 30.212 203.258 28.718 203.294 27.242L203.348 22.544C203.348 21.356 203.33 20.168 203.294 18.98C203.258 17.756 203.186 16.532 203.078 15.308C203.006 14.228 202.844 13.166 202.592 12.122C202.376 11.078 202.106 10.034 201.782 8.99C201.242 7.37 200.414 6.56 199.298 6.56C198.758 6.56 198.092 6.722 197.3 7.046C195.68 7.766 194.348 8.828 193.304 10.232C192.116 11.852 191.198 13.562 190.55 15.362C189.902 17.162 189.47 19.052 189.254 21.032L189.2 21.95C189.2 22.454 189.236 22.976 189.308 23.516C189.416 24.056 189.542 24.578 189.686 25.082C189.794 25.406 189.848 25.73 189.848 26.054C189.848 27.134 189.326 27.854 188.282 28.214C187.994 28.322 187.706 28.376 187.418 28.376C186.338 28.376 185.546 27.836 185.042 26.756C184.466 25.352 184.178 23.858 184.178 22.274C184.178 22.022 184.178 21.788 184.178 21.572C184.178 21.32 184.196 21.068 184.232 20.816C184.448 18.584 184.898 16.442 185.582 14.39C186.266 12.338 187.22 10.358 188.444 8.45C189.812 6.29 191.45 4.598 193.358 3.374C195.266 2.114 197.516 1.412 200.108 1.268H204.104L208.1 1.322C209.828 1.394 211.232 1.862 212.312 2.726C213.392 3.554 214.256 4.706 214.904 6.182C215.948 8.594 216.578 11.096 216.794 13.688C216.938 14.984 217.046 16.28 217.118 17.576C217.226 18.836 217.28 20.006 217.28 21.086V22.22C217.208 24.92 217.118 27.386 217.01 29.618C216.938 31.85 216.632 33.83 216.092 35.558C215.804 36.458 215.498 37.34 215.174 38.204C214.886 39.068 214.49 39.896 213.986 40.688C213.914 40.868 213.842 41.03 213.77 41.174C213.698 41.282 213.662 41.408 213.662 41.552C213.662 41.768 213.77 41.984 213.986 42.2C214.922 43.136 215.66 44.108 216.2 45.116C216.776 46.124 217.208 47.186 217.496 48.302C217.784 49.418 217.964 50.552 218.036 51.704C218.108 52.856 218.144 54.026 218.144 55.214V56.51C218.144 59.318 217.388 62.018 215.876 64.61C214.652 66.698 212.834 68.048 210.422 68.66C209.054 69.02 207.704 69.236 206.372 69.308C205.076 69.38 203.744 69.416 202.376 69.416H198.542ZM245.577 69.362C244.749 69.326 244.119 69.092 243.687 68.66C243.255 68.264 243.039 67.706 243.039 66.986L243.147 66.176C243.291 65.564 243.363 64.952 243.363 64.34C243.399 63.728 243.453 63.116 243.525 62.504C243.597 61.748 243.651 60.668 243.687 59.264C243.759 57.86 243.813 56.312 243.849 54.62C243.921 52.964 243.957 51.254 243.957 49.49C243.993 47.69 244.011 46.034 244.011 44.522C244.047 42.974 244.065 41.642 244.065 40.526C244.101 39.41 244.119 38.69 244.119 38.366C244.119 36.71 244.101 34.964 244.065 33.128C244.029 31.256 244.011 29.348 244.011 27.404V26C244.011 25.784 243.939 25.658 243.795 25.622C243.615 25.766 243.489 25.946 243.417 26.162C243.381 26.342 243.327 26.54 243.255 26.756C242.535 29.384 241.815 32.012 241.095 34.64C240.375 37.268 239.619 39.896 238.827 42.524C237.783 46.016 236.811 49.49 235.911 52.946C235.011 56.402 233.895 59.678 232.563 62.774C232.203 63.602 231.861 64.412 231.537 65.204C231.213 65.996 230.853 66.77 230.457 67.526C229.881 68.714 229.035 69.308 227.919 69.308L227.109 69.2C225.561 68.876 224.733 67.832 224.625 66.068C224.625 65.852 224.625 65.636 224.625 65.42C224.661 65.204 224.697 64.988 224.733 64.772C224.949 60.74 225.201 56.636 225.489 52.46C225.813 48.248 226.137 44 226.461 39.716C226.749 35.9 226.947 32.12 227.055 28.376C227.163 24.596 227.217 20.798 227.217 16.982C227.217 15.506 227.217 14.048 227.217 12.608C227.217 11.168 227.199 9.782 227.163 8.45L227.109 3.698C227.145 2.978 227.361 2.42 227.757 2.024C228.189 1.592 228.729 1.34 229.377 1.268H229.485C230.097 1.268 230.619 1.448 231.051 1.808C231.483 2.168 231.771 2.69 231.915 3.374C231.987 3.734 232.023 4.094 232.023 4.454C232.023 4.814 232.041 5.174 232.077 5.534C232.149 6.47 232.185 7.478 232.185 8.558C232.221 9.602 232.239 10.664 232.239 11.744L232.185 21.464C232.185 25.604 232.059 29.708 231.807 33.776C231.555 37.844 231.285 41.93 230.997 46.034C230.925 46.538 230.871 47.06 230.835 47.6C230.799 48.104 230.781 48.626 230.781 49.166C230.781 49.49 230.799 49.832 230.835 50.192C230.871 50.516 230.925 50.858 230.997 51.218C231.105 50.93 231.213 50.66 231.321 50.408C231.429 50.156 231.519 49.886 231.591 49.598C232.203 47.51 232.797 45.44 233.373 43.388C233.985 41.336 234.579 39.266 235.155 37.178C236.703 31.598 238.233 26.072 239.745 20.6C241.293 15.092 242.481 9.53 243.309 3.914C243.417 3.086 243.669 2.474 244.065 2.078C244.497 1.682 245.163 1.448 246.063 1.376C247.107 1.304 248.133 1.25 249.141 1.214C250.149 1.178 251.175 1.16 252.219 1.16C253.731 1.16 255.207 1.214 256.647 1.322C257.511 1.394 258.177 1.682 258.645 2.186C259.149 2.69 259.401 3.356 259.401 4.184V5.426C259.401 6.326 259.419 7.226 259.455 8.126C259.491 8.99 259.509 9.872 259.509 10.772V11.852C259.437 13.472 259.401 15.146 259.401 16.874C259.401 18.602 259.401 20.348 259.401 22.112C259.401 24.056 259.401 25.982 259.401 27.89C259.437 29.762 259.491 31.67 259.563 33.614L259.617 36.152V37.016C259.617 37.628 259.599 38.474 259.563 39.554C259.563 40.598 259.545 41.768 259.509 43.064C259.473 44.36 259.437 45.746 259.401 47.222C259.365 48.662 259.329 50.084 259.293 51.488C259.293 52.856 259.275 54.152 259.239 55.376C259.203 56.636 259.185 57.698 259.185 58.562C259.185 59.678 259.131 60.776 259.023 61.856C258.915 62.972 258.825 64.088 258.753 65.204C258.753 65.852 258.645 66.5 258.429 67.148C258.033 68.516 257.133 69.2 255.729 69.2C254.037 69.236 252.345 69.272 250.653 69.308C248.997 69.344 247.305 69.362 245.577 69.362ZM269.069 69.308C267.593 69.308 266.747 68.498 266.531 66.878C266.459 66.266 266.405 65.636 266.369 64.988C266.369 64.34 266.351 63.692 266.315 63.044L265.235 37.07C265.163 36.242 265.109 35.432 265.073 34.64C265.037 33.812 265.019 33.02 265.019 32.264C265.019 31.076 265.037 29.924 265.073 28.808C265.109 27.692 265.145 26.576 265.181 25.46C265.217 22.76 265.235 20.06 265.235 17.36C265.271 14.66 265.325 11.96 265.397 9.26C265.433 8.504 265.487 7.766 265.559 7.046C265.631 6.29 265.703 5.534 265.775 4.778C265.955 3.374 266.315 2.42 266.855 1.916C267.431 1.412 268.421 1.142 269.825 1.106H277.601C279.653 1.178 280.679 1.988 280.679 3.536C280.679 4.004 280.607 4.454 280.463 4.886C280.175 5.714 280.013 6.542 279.977 7.37C279.941 8.162 279.923 8.972 279.923 9.8C279.851 12.86 279.779 15.884 279.707 18.872C279.635 21.824 279.599 24.65 279.599 27.35C279.599 30.77 279.653 34.208 279.761 37.664C279.797 38.816 279.887 39.59 280.031 39.986C280.211 40.382 280.661 40.58 281.381 40.58C281.597 40.58 281.831 40.58 282.083 40.58C282.371 40.544 282.695 40.508 283.055 40.472C283.811 40.4 284.567 40.346 285.323 40.31C286.079 40.274 286.835 40.256 287.591 40.256C287.879 40.256 288.131 40.256 288.347 40.256C288.599 40.256 288.851 40.238 289.103 40.202C289.751 40.094 290.255 40.004 290.615 39.932C291.011 39.824 291.317 39.68 291.533 39.5C291.749 39.284 291.875 39.032 291.911 38.744C291.983 38.42 292.019 37.988 292.019 37.448L291.965 33.56C291.965 31.652 292.001 29.798 292.073 27.998C292.145 26.162 292.235 24.452 292.343 22.868C292.451 21.356 292.505 19.844 292.505 18.332C292.541 16.784 292.559 15.236 292.559 13.688V6.452C292.559 6.164 292.523 5.876 292.451 5.588C292.415 5.3 292.379 5.012 292.343 4.724L292.289 4.13C292.289 3.626 292.397 3.122 292.613 2.618C293.117 1.538 293.909 0.997997 294.989 0.997997H295.151C296.375 1.07 297.131 1.718 297.419 2.942C297.491 3.338 297.527 3.734 297.527 4.13C297.563 4.526 297.581 4.922 297.581 5.318C297.581 9.89 297.527 14.408 297.419 18.872C297.347 23.3 297.203 27.62 296.987 31.832L296.933 34.532C296.933 35.828 296.987 37.088 297.095 38.312C297.131 38.6 297.149 38.87 297.149 39.122C297.149 39.374 297.221 39.608 297.365 39.824C297.761 40.508 297.959 41.174 297.959 41.822C297.959 42.362 297.815 42.902 297.527 43.442C297.383 43.694 297.311 44 297.311 44.36C297.311 44.612 297.329 44.864 297.365 45.116C297.401 45.332 297.437 45.566 297.473 45.818L299.687 65.474C299.723 65.69 299.741 65.906 299.741 66.122C299.777 66.338 299.795 66.554 299.795 66.77C299.723 67.49 299.489 68.084 299.093 68.552C298.733 69.02 298.247 69.29 297.635 69.362H297.311C296.699 69.362 296.159 69.182 295.691 68.822C295.259 68.462 294.989 67.922 294.881 67.202C294.701 66.122 294.539 65.024 294.395 63.908C294.251 62.828 294.125 61.73 294.017 60.614C293.729 57.914 293.477 55.448 293.261 53.216C293.045 50.984 292.811 48.662 292.559 46.25C292.487 45.674 292.397 45.296 292.289 45.116C292.217 44.936 292.037 44.846 291.749 44.846L290.669 44.954C289.157 45.098 287.645 45.206 286.133 45.278C284.657 45.35 283.163 45.422 281.651 45.494C281.003 45.53 280.589 45.602 280.409 45.71C280.229 45.782 280.139 46.07 280.139 46.574L280.949 64.124V66.716C280.769 68.444 279.905 69.308 278.357 69.308C277.673 69.344 277.007 69.362 276.359 69.362C275.711 69.362 275.063 69.362 274.415 69.362L269.069 69.308ZM310.038 69.902C308.742 69.902 307.824 69.668 307.284 69.2C306.78 68.768 306.51 67.868 306.474 66.5C306.438 65.888 306.402 65.258 306.366 64.61C306.366 63.998 306.366 63.386 306.366 62.774L306.42 60.668L306.528 54.458C306.528 52.478 306.474 50.516 306.366 48.572C306.294 46.592 306.258 44.612 306.258 42.632C306.258 41.048 306.312 39.446 306.42 37.826V34.37C306.528 31.85 306.618 29.348 306.69 26.864C306.798 24.344 306.852 21.86 306.852 19.412C306.852 17.072 306.798 14.714 306.69 12.338L306.636 9.368C306.636 8.54 306.636 7.748 306.636 6.992C306.672 6.2 306.708 5.39 306.744 4.562C306.816 3.518 307.05 2.78 307.446 2.348C307.842 1.88 308.562 1.574 309.606 1.43C311.046 1.214 312.558 1.106 314.142 1.106H315.384C317.22 1.106 319.02 1.106 320.784 1.106C322.548 1.07 324.348 1.052 326.184 1.052C329.208 1.052 332.214 1.106 335.202 1.214C335.454 1.25 335.706 1.286 335.958 1.322C336.21 1.358 336.462 1.412 336.714 1.484C337.218 1.664 337.614 1.952 337.902 2.348C338.19 2.744 338.334 3.176 338.334 3.644V3.968C338.19 5.084 337.56 5.786 336.444 6.074C336.264 6.11 336.066 6.146 335.85 6.182C335.67 6.182 335.49 6.182 335.31 6.182H334.932C334.5 6.146 334.068 6.128 333.636 6.128C333.24 6.128 332.826 6.128 332.394 6.128C331.386 6.128 330.378 6.146 329.37 6.182C328.362 6.218 327.354 6.254 326.346 6.29L325.05 6.182C324.618 6.182 324.186 6.2 323.754 6.236C323.322 6.272 322.89 6.29 322.458 6.29C321.738 6.29 321.378 6.632 321.378 7.316L321.324 9.908C321.396 11.852 321.45 13.796 321.486 15.74C321.558 17.684 321.594 19.646 321.594 21.626C321.594 24.002 321.558 26.396 321.486 28.808C321.414 31.184 321.306 33.344 321.162 35.288C321.126 35.684 321.108 36.08 321.108 36.476C321.108 36.872 321.108 37.268 321.108 37.664V38.42C321.108 38.744 321.126 38.996 321.162 39.176C321.198 39.356 321.288 39.5 321.432 39.608C321.576 39.716 321.774 39.788 322.026 39.824C322.314 39.86 322.692 39.878 323.16 39.878L324.402 39.932L326.832 39.878C327.264 39.878 327.696 39.896 328.128 39.932C328.56 39.932 328.992 40.004 329.424 40.148C330 40.328 330.432 40.652 330.72 41.12C331.044 41.552 331.206 42.02 331.206 42.524C331.206 42.812 331.188 43.028 331.152 43.172C331.044 43.712 330.774 44.18 330.342 44.576C329.946 44.936 329.478 45.116 328.938 45.116L328.452 45.062C328.092 44.99 327.75 44.954 327.426 44.954C327.102 44.918 326.76 44.9 326.4 44.9L323.916 44.954H322.296C321.828 44.954 321.504 45.062 321.324 45.278C321.18 45.458 321.108 45.782 321.108 46.25V46.682C321.18 47.438 321.216 48.194 321.216 48.95C321.216 49.67 321.216 50.408 321.216 51.164C321.216 52.712 321.198 54.062 321.162 55.214C321.162 56.366 321.144 57.374 321.108 58.238C321.108 59.138 321.09 59.93 321.054 60.614C321.054 61.334 321.054 62.036 321.054 62.72C321.054 63.476 321.108 63.962 321.216 64.178C321.324 64.43 321.648 64.556 322.188 64.556L334.608 63.962C335.112 63.962 335.562 64.034 335.958 64.178C337.038 64.574 337.578 65.312 337.578 66.392V66.5C337.578 67.472 337.092 68.192 336.12 68.66C335.724 68.84 335.328 68.948 334.932 68.984C334.572 69.02 334.194 69.038 333.798 69.038C331.53 69.11 329.28 69.218 327.048 69.362C324.852 69.506 322.638 69.578 320.406 69.578C320.19 69.578 319.902 69.578 319.542 69.578C319.182 69.614 318.804 69.632 318.408 69.632H317.058C315.906 69.632 314.736 69.668 313.548 69.74C312.396 69.848 311.226 69.902 310.038 69.902Z" fill="#FDA3C4"/>
</svg>
